# xmcd
#
# Track frame offsets: 
#        150
#        22015
#        45450
#        70745
#        88725
#        107170
#        126430
#        147290
#        168247
#        187412
#        207092
#        223362
#        241695
#        261730
#        283977
#
# Disc length: 4081 seconds
#
# Revision: 2
# Processed by: cddbd v1.5.2PL0 Copyright (c) Steve Scherf et al.
# Submitted via: ExactAudioCopyFreeDBPlugin 1.0
#
DISCID=f40fef0f
DTITLE=Thomas Hardin Trio - Adagio
DYEAR=1997
DGENRE=Jazz
TTITLE0=グルック:精霊の踊り
TTITLE1=ヴィヴァルディ:ラルゴ
TTITLE2=バーバー:弦楽のためのアダージョ
TTITLE3=モーツァルト:アヴェ・ヴェルム・コルプス
TTITLE4=ショパン:ラルゴ
TTITLE5=グノー:アヴェ・マリア
TTITLE6=バッハ:恋するガリア
TTITLE7=ヘンデル:アリア
TTITLE8=モーツァルト:アダージョ
TTITLE9=ベートーヴェン:悲愴
TTITLE10=チャイコフスキー:弦楽セレナード
TTITLE11=マルチェルロ:ベニスの愛
TTITLE12=ドビュッシー:夢
TTITLE13=ドヴォルザーク:我が母の教えたまいし歌
TTITLE14=ショパン:別れの曲
EXTD=
EXTT0=
EXTT1=
EXTT2=
EXTT3=
EXTT4=
EXTT5=
EXTT6=
EXTT7=
EXTT8=
EXTT9=
EXTT10=
EXTT11=
EXTT12=
EXTT13=
EXTT14=
PLAYORDER=
